<?xml version="1.0"?>
<svg xmlns="http://www.w3.org/2000/svg" xmlns:xlink="http://www.w3.org/1999/xlink" xmlns:svgjs="http://svgjs.com/svgjs" version="1.1" width="512" height="512" x="0" y="0" viewBox="0 0 512 512" style="enable-background:new 0 0 512 512" xml:space="preserve"><g>
<g xmlns="http://www.w3.org/2000/svg">
	<g>
		<path d="M496,416H326.624l-59.328-59.328c-6.24-6.24-16.384-6.24-22.624,0L185.376,416H16c-8.832,0-16,7.168-16,16    c0,8.832,7.168,16,16,16h176c4.256,0,8.32-1.696,11.328-4.672L256,390.624l52.672,52.672C311.68,446.304,315.744,448,320,448h176    c8.832,0,16-7.168,16-16C512,423.168,504.832,416,496,416z" fill="#ffffff" data-original="#000000" style=""/>
	</g>
</g>
<g xmlns="http://www.w3.org/2000/svg">
	<g>
		<path d="M256,160c-88.32,0-160,71.68-160,160c0,22.752,4.928,44.352,13.472,64h62.656l49.952-49.952    c18.72-18.752,49.152-18.752,67.872,0L339.872,384h62.656C411.072,364.352,416,342.752,416,320C416,231.68,344.32,160,256,160z" fill="#ffffff" data-original="#000000" style=""/>
	</g>
</g>
<g xmlns="http://www.w3.org/2000/svg">
	<g>
		<path d="M256,64c-8.832,0-16,7.168-16,16v32c0,8.832,7.168,16,16,16c8.832,0,16-7.168,16-16V80C272,71.168,264.832,64,256,64z" fill="#ffffff" data-original="#000000" style=""/>
	</g>
</g>
<g xmlns="http://www.w3.org/2000/svg">
	<g>
		<path d="M48,304H16c-8.832,0-16,7.168-16,16c0,8.832,7.168,16,16,16h32c8.832,0,16-7.168,16-16C64,311.168,56.832,304,48,304z" fill="#ffffff" data-original="#000000" style=""/>
	</g>
</g>
<g xmlns="http://www.w3.org/2000/svg">
	<g>
		<path d="M496,304h-32c-8.832,0-16,7.168-16,16c0,8.832,7.168,16,16,16h32c8.832,0,16-7.168,16-16C512,311.168,504.832,304,496,304    z" fill="#ffffff" data-original="#000000" style=""/>
	</g>
</g>
<g xmlns="http://www.w3.org/2000/svg">
	<g>
		<path d="M120.224,161.6L97.6,139.008c-6.24-6.24-16.384-6.24-22.624,0s-6.24,16.384,0,22.624L97.6,184.224    c3.136,3.136,7.232,4.672,11.328,4.672c4.096,0,8.192-1.536,11.296-4.672C126.464,177.984,126.464,167.84,120.224,161.6z" fill="#ffffff" data-original="#000000" style=""/>
	</g>
</g>
<g xmlns="http://www.w3.org/2000/svg">
	<g>
		<path d="M437.024,139.008c-6.24-6.24-16.384-6.24-22.624,0L391.776,161.6c-6.24,6.24-6.24,16.384,0,22.624    c3.136,3.136,7.232,4.704,11.328,4.704s8.192-1.568,11.328-4.672l22.592-22.624C443.264,155.392,443.264,145.248,437.024,139.008z    " fill="#ffffff" data-original="#000000" style=""/>
	</g>
</g>
<g xmlns="http://www.w3.org/2000/svg">
</g>
<g xmlns="http://www.w3.org/2000/svg">
</g>
<g xmlns="http://www.w3.org/2000/svg">
</g>
<g xmlns="http://www.w3.org/2000/svg">
</g>
<g xmlns="http://www.w3.org/2000/svg">
</g>
<g xmlns="http://www.w3.org/2000/svg">
</g>
<g xmlns="http://www.w3.org/2000/svg">
</g>
<g xmlns="http://www.w3.org/2000/svg">
</g>
<g xmlns="http://www.w3.org/2000/svg">
</g>
<g xmlns="http://www.w3.org/2000/svg">
</g>
<g xmlns="http://www.w3.org/2000/svg">
</g>
<g xmlns="http://www.w3.org/2000/svg">
</g>
<g xmlns="http://www.w3.org/2000/svg">
</g>
<g xmlns="http://www.w3.org/2000/svg">
</g>
<g xmlns="http://www.w3.org/2000/svg">
</g>
</g></svg>
