<?xml version="1.0"?>
<svg xmlns="http://www.w3.org/2000/svg" xmlns:xlink="http://www.w3.org/1999/xlink" xmlns:svgjs="http://svgjs.com/svgjs" version="1.1" width="512" height="512" x="0" y="0" viewBox="0 0 512.005 512.005" style="enable-background:new 0 0 512 512" xml:space="preserve" class=""><g><g xmlns="http://www.w3.org/2000/svg"><g><path d="m302.859 184.739h-272.857v-30h272.857c21.059 0 38.19-17.132 38.19-38.191s-17.132-38.191-38.19-38.191v-30c37.601 0 68.19 30.59 68.19 68.191.001 37.6-30.589 68.191-68.19 68.191z" fill="#ffffff" data-original="#000000" style="" class=""/></g><g><path d="m423.061 264.744h-305.725v-30h305.725c20.582 0 37.326-16.745 37.326-37.326 0-20.582-16.744-37.327-37.326-37.327v-30c37.124 0 67.326 30.203 67.326 67.327 0 37.123-30.202 67.326-67.326 67.326z" fill="#ffffff" data-original="#000000" style="" class=""/></g><g><path d="m437.555 463.648c-41.052 0-74.449-33.398-74.449-74.45h30c0 24.51 19.939 44.45 44.449 44.45s44.45-19.94 44.45-44.45-19.94-44.45-44.45-44.45h-355.386v-30h355.386c41.052 0 74.45 33.398 74.45 74.45s-33.399 74.45-74.45 74.45z" fill="#ffffff" data-original="#000000" style="" class=""/></g><g><path d="m131.99 374.752h123.999v30h-123.999z" fill="#ffffff" data-original="#000000" style="" class=""/></g><g><path d="m82.169 94.735h132.164v30h-132.164z" fill="#ffffff" data-original="#000000" style="" class=""/></g><g><path d="m0 234.744h89.334v30h-89.334z" fill="#ffffff" data-original="#000000" style="" class=""/></g></g></g></svg>
